# Blender 4.2.3 LTS
# www.blender.org
mtllib leverBody.mtl.mtl
o Body
v -0.446911 0.177766 0.899460
v 0.406268 0.177766 0.899460
v -0.446911 0.177766 -0.924974
v 0.406268 0.177766 -0.924974
v -0.446911 -0.062767 -0.637135
v 0.406268 -0.062767 -0.637135
v 0.406268 0.291586 -0.637135
v -0.446911 0.291586 -0.637135
v 0.406268 -0.062767 0.630901
v -0.446911 -0.062767 0.630901
v -0.446911 0.291586 0.630901
v 0.406268 0.291586 0.630901
v 0.134989 0.291586 -0.637135
v -0.202642 0.291586 -0.637135
v -0.202642 0.291586 0.630901
v 0.134989 0.291586 0.630901
v 0.134989 -0.029394 0.591735
v 0.134989 -0.029394 -0.596259
v -0.202642 -0.029394 -0.596259
v -0.202642 -0.029394 0.591735
v 0.406268 0.206302 0.630901
v 0.406268 0.206302 -0.637135
v 0.134989 0.206302 -0.637135
v -0.202642 0.206302 -0.637135
v -0.446911 0.206302 -0.637135
v -0.446911 0.206302 0.630901
v -0.202642 0.206302 0.630901
v 0.134989 0.206302 0.630901
v 0.134989 0.206302 -0.596259
v 0.134989 0.206302 0.591735
v -0.202642 0.206302 0.591735
v -0.202642 0.206302 -0.596259
v 0.157929 0.007246 -0.924974
v -0.198572 0.107752 -0.924974
v 0.157929 0.107752 -0.924974
v -0.198572 0.040391 -0.924974
v 0.157929 0.040391 -0.924974
v -0.446911 -0.062767 -0.924974
v -0.198572 0.007246 -0.924974
v 0.406268 -0.062767 -0.924974
v -0.198572 -0.030631 -0.924974
v 0.157929 -0.030631 -0.924974
v 0.157929 -0.030631 -1.134595
v -0.198572 -0.030631 -1.134595
v 0.157929 -0.060115 -0.924974
v 0.157929 -0.060115 -1.134595
v -0.198572 -0.060115 -1.134595
v -0.198572 -0.060115 -0.924974
v -0.244869 -0.005806 0.899460
v 0.204226 0.120805 0.899460
v -0.244869 0.120805 0.899460
v 0.204226 0.065347 0.899460
v -0.244869 0.065347 0.899460
v 0.406268 -0.062767 0.899460
v 0.204226 -0.005806 0.899460
v -0.446911 -0.062767 0.899460
v 0.204226 -0.044676 0.899460
v -0.244869 -0.044676 0.899460
v -0.244869 -0.044676 1.070963
v 0.204226 -0.044676 1.070963
v -0.244869 -0.061264 0.899460
v -0.244869 -0.061264 1.070963
v 0.204226 -0.061264 1.070963
v 0.204226 -0.061264 0.899460
vn -0.0000 -1.0000 -0.0000
vn -0.0000 1.0000 -0.0000
vn -0.0000 -0.0000 1.0000
vn -0.0000 -0.0000 -1.0000
vn 1.0000 -0.0000 -0.0000
vn -1.0000 -0.0000 -0.0000
vn -0.0000 0.9299 -0.3677
vn -0.0000 0.9207 0.3902
vt 0.074722 0.383940
vt 0.051858 0.384109
vt 0.051918 0.524538
vt 0.074782 0.524368
vt 0.074057 0.479722
vt 0.052636 0.479881
vt 0.052612 0.424309
vt 0.074033 0.424150
vt 0.046667 0.384148
vt 0.046727 0.524576
vt 0.079625 0.524332
vt 0.079565 0.383904
vt 0.051898 0.479887
vt 0.051875 0.424314
vt 0.074739 0.424145
vt 0.074763 0.479717
vt 0.046710 0.483701
vt 0.046685 0.425023
vt 0.042905 0.425051
vt 0.042930 0.483729
vt 0.079579 0.417159
vt 0.079610 0.491077
vt 0.082703 0.491055
vt 0.082671 0.417136
s 1
usemtl RammedEarth006_WM_ARNOLD
f 10/1/1 5/2/1 6/3/1
f 6/3/1 9/4/1 10/1/1
f 17/5/2 18/6/2 19/7/2
f 19/7/2 20/8/2 17/5/2
s 0
f 38/9/1 40/10/1 6/3/1
f 6/3/1 5/2/1 38/9/1
f 54/11/1 56/12/1 10/1/1
f 10/1/1 9/4/1 54/11/1
s 1
f 23/13/2 24/14/2 32/7/2
f 32/7/2 29/6/2 23/13/2
f 30/5/2 31/8/2 27/15/2
f 27/15/2 28/16/2 30/5/2
s 0
f 7/3/3 13/13/3 23/13/3
f 23/13/3 22/3/3 7/3/3
f 13/13/3 14/14/3 24/14/3
f 24/14/3 23/13/3 13/13/3
f 14/14/3 8/2/3 25/2/3
f 25/2/3 24/14/3 14/14/3
f 11/1/4 15/15/4 27/15/4
f 27/15/4 26/1/4 11/1/4
f 15/15/4 16/16/4 28/16/4
f 28/16/4 27/15/4 15/15/4
f 16/16/4 12/4/4 21/4/4
f 21/4/4 28/16/4 16/16/4
s 1
f 21/4/5 9/4/5 6/3/5
f 6/3/5 22/3/5 21/4/5
f 25/2/6 5/2/6 10/1/6
f 10/1/6 26/1/6 25/2/6
s 0
f 29/6/6 18/6/6 17/5/6
f 17/5/6 30/5/6 29/6/6
f 30/5/4 17/5/4 20/8/4
f 20/8/4 31/8/4 30/5/4
f 31/8/5 20/8/5 19/7/5
f 19/7/5 32/7/5 31/8/5
f 32/7/3 19/7/3 18/6/3
f 18/6/3 29/6/3 32/7/3
s 1
f 3/9/4 4/10/4 35/17/4
f 35/17/4 34/18/4 3/9/4
f 34/18/4 35/17/4 37/17/4
f 37/17/4 36/18/4 34/18/4
s 0
f 45/17/1 48/18/1 47/19/1
f 47/19/1 46/20/1 45/17/1
f 42/17/2 43/20/2 44/19/2
f 44/19/2 41/18/2 42/17/2
s 1
f 42/17/5 45/17/5 46/20/5
f 46/20/5 43/20/5 42/17/5
f 43/20/4 46/20/4 47/19/4
f 47/19/4 44/19/4 43/20/4
f 44/19/6 47/19/6 48/18/6
f 48/18/6 41/18/6 44/19/6
f 2/11/3 1/12/3 51/21/3
f 51/21/3 50/22/3 2/11/3
f 50/22/3 51/21/3 53/21/3
f 53/21/3 52/22/3 50/22/3
s 0
f 61/21/1 64/22/1 63/23/1
f 63/23/1 62/24/1 61/21/1
f 58/21/2 59/24/2 60/23/2
f 60/23/2 57/22/2 58/21/2
s 1
f 52/22/3 55/22/3 54/11/3
f 52/22/3 54/11/3 2/11/3
f 52/22/3 2/11/3 50/22/3
f 53/21/3 51/21/3 1/12/3
f 53/21/3 1/12/3 56/12/3
f 53/21/3 56/12/3 49/21/3
f 36/18/4 39/18/4 38/9/4
f 36/18/4 38/9/4 3/9/4
f 36/18/4 3/9/4 34/18/4
f 37/17/4 35/17/4 4/10/4
f 37/17/4 4/10/4 40/10/4
f 37/17/4 40/10/4 33/17/4
s 0
f 22/3/5 6/3/5 40/10/5
f 22/3/5 40/10/5 4/10/5
f 22/3/5 4/10/5 7/3/5
f 25/2/6 8/2/6 3/9/6
f 25/2/6 3/9/6 38/9/6
f 25/2/6 38/9/6 5/2/6
f 26/1/6 10/1/6 56/12/6
f 26/1/6 56/12/6 1/12/6
f 26/1/6 1/12/6 11/1/6
f 21/4/5 12/4/5 2/11/5
f 21/4/5 2/11/5 54/11/5
f 21/4/5 54/11/5 9/4/5
f 13/13/7 7/3/7 4/10/7
f 14/14/7 13/13/7 4/10/7
f 14/14/7 4/10/7 3/9/7
f 14/14/7 3/9/7 8/2/7
f 15/15/8 11/1/8 1/12/8
f 16/16/8 15/15/8 1/12/8
f 16/16/8 1/12/8 2/11/8
f 16/16/8 2/11/8 12/4/8
s 1
f 30/5/2 28/16/2 21/4/2
f 29/6/2 30/5/2 21/4/2
f 29/6/2 21/4/2 22/3/2
f 29/6/2 22/3/2 23/13/2
f 32/7/2 24/14/2 25/2/2
f 31/8/2 32/7/2 25/2/2
f 31/8/2 25/2/2 26/1/2
f 31/8/2 26/1/2 27/15/2
f 42/17/4 33/17/4 40/10/4
f 45/17/4 42/17/4 40/10/4
f 48/18/4 45/17/4 40/10/4
f 48/18/4 40/10/4 38/9/4
f 41/18/4 48/18/4 38/9/4
f 41/18/4 38/9/4 39/18/4
f 33/17/4 42/17/4 41/18/4
f 33/17/4 41/18/4 39/18/4
f 39/18/4 36/18/4 37/17/4
f 33/17/4 39/18/4 37/17/4
f 58/21/3 49/21/3 56/12/3
f 61/21/3 58/21/3 56/12/3
f 64/22/3 61/21/3 56/12/3
f 64/22/3 56/12/3 54/11/3
f 54/11/3 55/22/3 57/22/3
f 64/22/3 54/11/3 57/22/3
f 52/22/3 53/21/3 49/21/3
f 58/21/3 57/22/3 55/22/3
f 49/21/3 58/21/3 55/22/3
f 52/22/3 49/21/3 55/22/3
f 58/21/6 61/21/6 62/24/6
f 62/24/6 59/24/6 58/21/6
f 59/24/3 62/24/3 63/23/3
f 63/23/3 60/23/3 59/24/3
f 60/23/5 63/23/5 64/22/5
f 64/22/5 57/22/5 60/23/5
