# Blender 4.3.0
# www.blender.org
mtllib poto.mtl
o Cube
v -0.144427 0.002534 0.091302
v -0.144427 4.633214 0.091302
v -0.144427 0.002534 -0.091302
v -0.144427 4.633214 -0.091302
v 0.144427 0.002534 0.091302
v 0.144427 4.633214 0.091302
v 0.144427 0.002534 -0.091302
v 0.144427 4.633214 -0.091302
vn -1.0000 -0.0000 -0.0000
vn -0.0000 -0.0000 -1.0000
vn 1.0000 -0.0000 -0.0000
vn -0.0000 -0.0000 1.0000
vn -0.0000 -1.0000 -0.0000
vn -0.0000 1.0000 -0.0000
vt 0.143472 0.443823
vt 0.143472 0.118881
vt 0.476805 0.118881
vt 0.476805 0.443823
vt 0.215208 0.382751
vt 0.215208 0.057809
vt 0.548541 0.057809
vt 0.548541 0.382751
vt 0.633190 0.364103
vt 0.633190 0.039161
vt 0.966523 0.039161
vt 0.966523 0.364103
vt 0.574366 0.398135
vt 0.574366 0.073194
vt 0.907700 0.073194
vt 0.907700 0.398135
vt 0.360593 0.479720
vt 0.027260 0.479720
vt 0.027260 0.154779
vt 0.360593 0.154779
vt 0.693926 0.479720
vt 0.693926 0.154779
s 0
usemtl Material
f 1/1/1 2/2/1 4/3/1 3/4/1
f 3/5/2 4/6/2 8/7/2 7/8/2
f 7/9/3 8/10/3 6/11/3 5/12/3
f 5/13/4 6/14/4 2/15/4 1/16/4
f 3/17/5 7/18/5 5/19/5 1/20/5
f 8/21/6 4/17/6 2/20/6 6/22/6
