# Aspose.3D Wavefront OBJ Exporter
# Copyright 2004-2024 Aspose Pty Ltd.
# File created: 12/11/2024 20:58:37

g obj_30596532

#
# object obj_30596532
#

v -50 29.612156 0
v -50 -30.060242 0
v -50 29.612156 3
v -50 -30.060242 3
v 50 29.612156 0
v 50 29.612156 3
v 50 -30.060242 0
v 50 -30.060242 3
# 8 vertices

vn -1 0 0
vn 0 1 0
vn 1 0 0
vn 0 -1 0
vn 0 0 1
vn 0 0 -1
# 6 vertex normals

s 1
f 1//1 2//1 3//1
f 3//1 2//1 4//1
f 5//2 1//2 6//2
f 6//2 1//2 3//2
f 7//3 5//3 8//3
f 8//3 5//3 6//3
f 2//4 7//4 4//4
f 4//4 7//4 8//4
f 4//5 8//5 3//5
f 3//5 8//5 6//5
f 7//6 2//6 5//6
f 5//6 2//6 1//6
#12 polygons

